/* XPM */
static char *back[] = {
/* columns rows colors chars-per-pixel */
"32 32 57 1 ",
"  c #0A74B2",
". c #077CBC",
"X c #087BBB",
"o c #077FC0",
"O c #0A83BE",
"+ c #0D88BE",
"@ c #0683C3",
"# c #0788C5",
"$ c #0B8BC5",
"% c #0486C9",
"& c #048ACC",
"* c #0A8DC8",
"= c #0590CF",
"- c #0B94CC",
"; c #1499C7",
": c #189CC4",
"> c #149CCB",
", c #028FD1",
"< c #0292D4",
"1 c #0994D0",
"2 c #0699D5",
"3 c #0C9CD3",
"4 c #0096D8",
"5 c #039BDB",
"6 c #16A2CC",
"7 c #1DADCE",
"8 c #0DA2D5",
"9 c #05A2DE",
"0 c #0AA6DD",
"q c #0CAADE",
"w c #12A3D4",
"e c #16A9D6",
"r c #1CAFD0",
"t c #11A6D9",
"y c #11AADD",
"u c #1CB2D5",
"i c #13B0DE",
"p c #1AB5DA",
"a c #18B8DF",
"s c #21BFDA",
"d c #0DACE1",
"f c #11AEE1",
"g c #0FB3E3",
"h c #12B3E3",
"j c #17BDE6",
"k c #19BDE5",
"l c #1DC4E7",
"z c #1FC8E7",
"x c #18C0E8",
"c c #1FC9E9",
"v c #21C6E2",
"b c #22CBE5",
"n c #21CEEB",
"m c #26D1E5",
"M c #25D6EE",
"N c #25D8EF",
"B c #27DEF1",
/* pixels */
"jq-%<hNNf<%%<45hMMh<%%<&.X,9hg95",
"hq3-<ybMf4,&,5fknbt&@&41@@&8jjd5",
"99q8-3jjd4<,&wvnkt*o.&<4<&O>bnd4",
"59qw*3jjd4,,&eMMi%oX%&<444;7vld5",
"44*#&yMnf,@o&fNm>o%,<<&&<fvvuw54",
"<&@@<hMMh,XX,fnvu>8095&1tknvw&,<",
"&&&,4hNBh,XX,5dkbbkhhq5ynnkf2,&%",
"%&44dhcckt$@,9fknnkyghhkNnlf54,%",
"4<49dggknzt<4fcnky319gcMncnnf44,",
"hfddgd28cnkhhkncf<&%<dcMxjnnkd94",
"Nnjd02##tjMMNnkf54%%<dkkddfknnf4",
"Nnj02%O%2hcMNnky5,&1thhd5<4dcnkh",
"hf02#@%2qghhhknlw&,ycch2%o<5dknM",
"hf02#@,djjd4<qcvpw0hnbh4%o&2dknM",
"Nnkq2<4fnnf<&1tknbkhhhhy2%o>vnkh",
"mvaq055hNMf,&,4fvnvk05dy51;rbvf<",
"6++-qddhMMy&<<42;ubbt=52#;sbkt1&",
"XXO#8tdknbpw54<%o6mMe%=&X;bby&o.",
"-=,%#6vnkkbvy<@.&yNMf=&@o-kk3@X ",
"hid8:7vvyfcnh2%$tknmkd=@o*tt3-;;",
"Mnkjlvuw55fhgq2tbnkknct,X@<dyavm",
"NnjxMbw&,1,5qhhknnffcnkt#$thhjbm",
"hh0gkj0,&#.#2hcnkd55fkncttlbh8>:",
"<<40jkd<@..@<hBMh4,,,tbnklncf<%X",
"%&<fnnf<.X%,4hMNh<@XX#tknnkf54,,",
"%1ykncy&@o&15hcMke-OX@<fnnf4<<<<",
"4tcnkt1&,&@$thhxnna81<49kjd<%.%%",
",tcnky1&<2;wyq5yznjhhhddggh8$O$-",
".$tkncy44dkvf5,1tgqhnnkddhbct28i",
"+#1ycnkfdhbby,&&<9djnnj05dcch0gg",
"tt&1tknnjhhy-&,44fcnky3145dhgg99",
"jy-%4hNBcdd<%%444hNNh<%%4559gg95"
};
