/* XPM */
static char *border[] = {
/* columns rows colors chars-per-pixel */
"32 32 75 1 ",
"  c #006DAD",
". c #006EAE",
"X c #0B6EAD",
"o c #0B6FAE",
"O c #007ABB",
"+ c #087CBB",
"@ c #3D7AB2",
"# c #417CB3",
"$ c #437CB3",
"% c #7093BD",
"& c #7094BD",
"* c #7294BD",
"= c #7395BD",
"- c #008ED0",
"; c #008FD0",
": c #0390D0",
"> c #0390D1",
", c #0098DB",
"< c #0099DB",
"1 c #2B9CDB",
"2 c #2E9CDB",
"3 c #329DDB",
"4 c #339DDB",
"5 c #419AD5",
"6 c #439AD5",
"7 c #709DC9",
"8 c #729ECA",
"9 c #58A3DB",
"0 c #59A4DB",
"q c #5AA4DB",
"w c #5AA5DB",
"e c #68A8DB",
"r c #6FACDD",
"t c #71ADDD",
"y c #72ADDD",
"u c #819FC2",
"i c #84A0C3",
"p c #85B1DB",
"a c #86B2DB",
"s c #87B2DB",
"d c #91B6DB",
"f c #92B7DC",
"g c #A6B8D0",
"h c #A7B9D0",
"j c #A8B9D0",
"k c #83B6E2",
"l c #9BBFE2",
"z c #A8C0DC",
"x c #AEC2DC",
"c c #AFC3DC",
"v c #B4C3D6",
"b c #B5C3D6",
"n c #BBC9DC",
"m c #BFCBDC",
"M c #B3C9E0",
"N c #B5CAE0",
"B c #BDCEE2",
"V c #C0CBDC",
"C c #C1CBDC",
"Z c #CDD7E1",
"A c #CDD5E2",
"S c #CDD6E2",
"D c #CFD8E2",
"F c #CEDEEC",
"G c #D7DEE6",
"H c #D7DFE6",
"J c #D8DFE6",
"K c #D4E0EC",
"L c #DDE5EC",
"P c #DEE6EC",
"I c #E2E7EC",
"U c #E6EBEE",
"Y c #ECF0F1",
"T c #EDF0F1",
"R c #EDF1F1",
/* pixels */
"YDuo oo+>,,<<<,kFDiX oo+:<<<<<<<",
"YHg&@  +>,<<<19lKKj&@  +:<<<<3we",
"YUJb%o +>,,,<wfBPULv&o.+:<<<<wdz",
"YYYHg%@O>,,3wpcZITUGh&@O:<<2wacV",
"RRRUHb&+-,,wdcnZITYYKb&+-<<wdcnV",
"YRRRYHg864wpjVVZITYYYJh754wscVVV",
"YYYRYUKnr9dcCCnZITYYYUJvy9dcnVVV",
"YYYYYUKcr9dcBCVZITYYYUHnrwfcnVVV",
"YYYRTKh764wscVVZUYYYYJj853wpxVVV",
"YYRUKb&+;<<wdxnDIYYUJb&+-<<wdcnC",
"TTYLh&@O;<<29pxZIYYJg%@O-<<2wscC",
"TUGb&X +:<<<,9dZPUJb%o +:<<<<wfz",
"TKh&@  +:<<<<2wdFJj&@  +-<<<<3we",
"Zb&X XX+:<<<<<<yNb&o oo+:<<<<<<<",
"u&#  XX+:<<<<<<68&$  oo+:<<<<<<<",
"u&#  XX+:<<<<<<68&$  oo+:<<<<<<<",
"Db%o XX+><,,,,,tcb&o oo+:<<<<<<<",
"YFh%@  +><<,,1wlKKj&@  +:<<<<3we",
"YUHb*X +>,,,,wdBPUKb&o +:<<<<wdx",
"RYYHg%@O><,1wpcAITTPh&@O:<<2wpcm",
"RTRULv%+><<wdcnAITRULb*+-<<wdxnV",
"RRTRYKg753wpcnCAITRRTGj763wpxVVV",
"TRURYUHMtwdcnCCZITUYTUGctwdcmVVV",
"TRRRYUHNtwdcnCCZITYYTUGnr9dcnVVV",
"TTUTTGj7549scVCZIYYYYJj8639scVVV",
"TTTUKb&+-<<wdxnZIYYUJb&+-<<wdcVV",
"YYYGj&@O:<<2wpcZIYYHh%@O:<<29pxV",
"YULv&X +:<<<<9dBPUJb%o +:<<<<wdx",
"TGj&@  +:<<<<2wlKKj&@  +-<<<<3we",
"Zj*X XX+:<<<<<<ynb&o oo+:<<<<<<<",
"i*5  XX+:<<<<<<58&$  oo+:<<<<<<<",
"XXXXXXX+:<<<<<<:+XXXooo+:<<<<<<<"
};
