/* XPM */
static char *exit[] = {
/* columns rows colors chars-per-pixel */
"32 32 101 2 ",
"   c black",
".  c #000C16",
"X  c #000E19",
"o  c #00121C",
"O  c #01181E",
"+  c #001620",
"@  c #001D2C",
"#  c #003752",
"$  c #023F54",
"%  c #013958",
"&  c #05404E",
"*  c #034355",
"=  c #064B58",
"-  c #07505A",
";  c #014261",
":  c #034D66",
">  c #034E68",
",  c #045169",
"<  c #095C6A",
"1  c #035C7D",
"2  c #015D8A",
"3  c #055E91",
"4  c #0B6A86",
"5  c #03638D",
"6  c #0D748B",
"7  c #046B91",
"8  c #056698",
"9  c #056B9C",
"0  c #097394",
"q  c #0D7B9B",
"w  c #0977A1",
"e  c #0378A6",
"r  c #047BAC",
"t  c #0878AA",
"y  c #0A74B2",
"u  c #037FB0",
"i  c #077CBD",
"p  c #087CBB",
"a  c #077FC0",
"s  c #11869C",
"d  c #138A9D",
"f  c #0B82AA",
"g  c #148DAA",
"h  c #0B8CB4",
"j  c #0B83BE",
"k  c #0F93B4",
"l  c #1195B6",
"z  c #199DB2",
"x  c #1096B8",
"c  c #169FB9",
"v  c #18A0B6",
"b  c #17A1B8",
"n  c #18A5BC",
"m  c #0683C3",
"M  c #0B8CC6",
"N  c #0486C9",
"B  c #048ACC",
"V  c #0A93CD",
"C  c #1395C1",
"Z  c #189CC4",
"A  c #149DCB",
"S  c #028FD1",
"D  c #0293D4",
"F  c #0994D0",
"G  c #0699D5",
"H  c #0C9CD3",
"J  c #0097D8",
"K  c #029ADB",
"L  c #16A3CD",
"P  c #1DADCE",
"I  c #0EA2D6",
"U  c #06A2DE",
"Y  c #0BA6DD",
"T  c #0CA9DE",
"R  c #12A3D4",
"E  c #12A9D6",
"W  c #1CAFD0",
"Q  c #11A7D9",
"!  c #11ABDD",
"~  c #1CB2D7",
"^  c #16B2DB",
"/  c #19B5DC",
"(  c #1ABBDE",
")  c #21BFDA",
"_  c #0DACE1",
"`  c #11AEE1",
"'  c #0FB3E3",
"]  c #13B3E3",
"[  c #17BDE6",
"{  c #19BDE5",
"}  c #1EC3DE",
"|  c #1DC4E6",
" . c #18C0E8",
".. c #1FC9E9",
"X. c #21C5E2",
"o. c #22CBE5",
"O. c #21CEEB",
"+. c #26D1E5",
"@. c #25D6ED",
"#. c #25D8EF",
"$. c #27DEF1",
/* pixels */
"[ T V N D ] #.#.] D N N D K J ] #.@.] D N N D F i p V U ' ' _ J ",
"] T H V D ! O.O.` J B B F K ` { O.O.Q B m N D D m m N I [ [ _ J ",
"U Y T E V H { [ Y J D S B R X.O.{ Q M p m N D J D N m A X.O._ J ",
"K U Y I V H ( [ _ J D B B Q @.@.! B a i m N D J J D A P X.O._ K ",
"K J M M B ! O.O.] D m m S ^ #.@.L a N D D S B B J ! X.X.W R K K ",
"D B m m D ] #.#.] B p 3         & C I U         > 6         X D ",
"N N B D J ] #.#.] S 3         * ) o.{ ]       : X.d         X N ",
"B B D K U ] O.O.{ f         $ / O.O.( !     , { @.d         X B ",
"J D K U _ ' ] [ b         $ ( O.[ ! H F   > | @.O.s         o D ",
"] ` _ Y _ T G f         * / O.o.` J N m ; T O.@.[ q         o K ",
"$.O.[ _ _ J 8         - o.O.{ _ K D N N B T [ [ _ 1         : J ",
"@...[ T G 9         = o.@.O.{ ` K F B F ! ] ' _ 5         < / ] ",
"] _ _ J 8         * I ] ] [ o.| R B D ! ....] 5         > { O.#.",
"] ] _ e         * ^ _ K J ! O.o.~ R I ] ..o.q         ; I [ O.#.",
"@.O.k         $ } O._ D B F T { o.O.[ ' ] q         % C X.o.{ ] ",
"+.z         # E #.#.^ S B B D ! X.o...[ 7         ; C W X.O.! D ",
"Z X                               6 +.o.          w ) o.{ Q 5 N ",
"p X                               4 @.+.          q X.O.! 2 . p ",
"B X                               0 #.+.          w { { 5   . y ",
"] o                               q O.O.          w I 7     X Z ",
"#.n x x b z g t r u h h o         d { {           9 5       O +.",
"#.O.{  .@...E B S D S G +         s ` ` c n x f 9 t f h h l v +.",
"] ! T _ [ [ I D N N i m +         7 U K _ [ @.| ! Q | O.] I A Z ",
"J J J T [ [ _ F N i i m o         5 D S B Q O.o.{ { O.o.` D m p ",
"N B D ` O.O.` S i p N S +         2 m p p B Q { O.@.[ ` _ J S S ",
"N V ! [ O.o.Q S m a B F @ o O + + 7 C j p m S ` O.O._ J S S D S ",
"D Q ..O.{ Q D B S N m M I ' ] [ O.O.{ I F F J Y [ [ _ S m i N N ",
"D Q | @.{ Q F S D G A A ^ _ K ! o.O.[ ' ] ` U _ _ ] ] Q M j B V ",
"p M Q { O.O.Q D J _ { X.] K B F T ` _ ] O.O.{ _ _ ` O.| Q F I ` ",
"M M S Q O.O.{ ` _ ] o.O.Q S B S D U _ [ O.O.{ T K ` ..O.] _ _ ' ",
"R R F F ` { O.O.[ ] ] ! F B S J J ` O.O.{ ` H F J K _ ` ' ' _ _ ",
"[ ! F N S ] #.$...` _ D N N J J J ` @.@.] D N B D K J _ ' ' K J "
};
