/* XPM */
static char *items[] = {
/* columns rows colors chars-per-pixel */
"32 32 135 2 ",
"   c #CC2127",
".  c #C92F3C",
"X  c #CC343B",
"o  c #C93140",
"O  c #CA3B48",
"+  c #BD4C66",
"@  c #B74F6C",
"#  c #BE566F",
"$  c #BB5572",
"%  c #B95A77",
"&  c #B95A78",
"*  c #B96475",
"=  c #BC6179",
"-  c #C7404C",
";  c #C24459",
":  c #C24D5E",
">  c #C94C59",
",  c #C1525E",
"<  c #C24C63",
"1  c #0A74B2",
"2  c #077CBC",
"3  c #087BBB",
"4  c #4E7BB6",
"5  c #7E7BAC",
"6  c #077FC0",
"7  c #9B6A95",
"8  c #976E9A",
"9  c #A2648C",
"0  c #AB6489",
"q  c #AE6D8B",
"w  c #B36B85",
"e  c #B57386",
"r  c #AA6F91",
"t  c #A47496",
"y  c #AE7591",
"u  c #A87C97",
"i  c #A3749C",
"p  c #A47E9D",
"a  c #9074A5",
"s  c #897DB1",
"d  c #0A83BE",
"f  c #0D88BE",
"g  c #3D80BC",
"h  c #5F91BC",
"j  c #7885AD",
"k  c #6082B6",
"l  c #6194BE",
"z  c #7E97BF",
"x  c #7A9CB8",
"c  c #0683C3",
"v  c #0B8CC5",
"b  c #0486C9",
"n  c #048ACC",
"m  c #0A8DC8",
"M  c #0590CF",
"N  c #0B94CC",
"B  c #1697C2",
"V  c #159AC6",
"C  c #189CC4",
"Z  c #149DCB",
"A  c #028FD1",
"S  c #0292D4",
"D  c #0994D0",
"F  c #0699D5",
"G  c #0C9CD3",
"H  c #0096D8",
"J  c #039BDB",
"K  c #259AD5",
"L  c #16A2CC",
"P  c #1DADCE",
"I  c #0DA2D6",
"U  c #05A2DE",
"Y  c #0BA6DD",
"T  c #0CAADE",
"R  c #12A2D4",
"E  c #16A9D6",
"W  c #11A6D9",
"Q  c #11AADD",
"!  c #1CB2D7",
"~  c #13B0DE",
"^  c #18B8DF",
"/  c #3CA5D7",
"(  c #3DABDD",
")  c #0EACE1",
"_  c #11AEE1",
"`  c #0FB3E3",
"'  c #13B3E2",
"]  c #17BDE6",
"[  c #19BDE5",
"{  c #2DAFE1",
"}  c #2CB1E1",
"|  c #5483C1",
" . c #538DC5",
".. c #4E94D1",
"X. c #6588C1",
"o. c #6F95C6",
"O. c #6298CB",
"+. c #7399C1",
"@. c #45A9DA",
"#. c #51A1D2",
"$. c #56B2D9",
"%. c #79A4CD",
"&. c #7CB5CE",
"*. c #62B1D2",
"=. c #1FC8E7",
"-. c #18C0E8",
";. c #1FC9E9",
":. c #21C6E2",
">. c #22CAE4",
",. c #21CEEB",
"<. c #26D1E5",
"1. c #25D6EE",
"2. c #25D8EF",
"3. c #27DEF1",
"4. c #5CC1DE",
"5. c #4ACBE7",
"6. c #57CCE1",
"7. c #AB8495",
"8. c #BD8092",
"9. c #B38A97",
"0. c #9385AF",
"q. c #9984A8",
"w. c #9C95AC",
"e. c #8A82B3",
"r. c #888BB8",
"t. c #978BB0",
"y. c #8697BE",
"u. c #9496B4",
"i. c #979BB3",
"p. c #9B9CB0",
"a. c #A889A3",
"s. c #88A6BC",
"d. c #838FC1",
"f. c #829AC1",
"g. c #8BABC2",
/* pixels */
"] T N b S ' 2.2._ S b b S J H ' 2.2.' S b n S n 2 3 A U ' ` ) H ",
"' T G N S Q >.1._ H A b A J _ [ ,.>.W A c n S S c c n I ] ] ) J ",
"U Y T I N G ] ] ) H S A n R :.,.[ W v 3 2 n S H S n 2 Z >.,.) J ",
"J U Y I m G ] ] ) H S n n E 1.1.Q b 6 6 b n S S H G Z P :.:.) H ",
"H F m v S Q >.,._ S c 6 A _ 2.<.L 6 n A S A n A H ) } :.! R J J ",
"S n c c S ' 1.3.' A 3 3 A ) >.:.P Z G ) ) H n D T -.,.:.R b A H ",
"n n A A H ' 1.2.' A 3 3 M J ) [ >.>.[ ' ` ) H Q =.1.[ _ F A b b ",
"b n H J J ' ,.,.[ W v c A U _ [ ,.,.[ Q ) ` ' -.1.1.[ _ U H A b ",
"S H H U T ` ` -.<.=.W S H ) ;.,.[ Q G D U ' ;.1.;.;.1.;.) H S S ",
"' _ ) ) ` T F Y =.,.[ ' ' [ ,.;._ S n b S ) ,.1.-.] ,.1.[ ) J J ",
"1.1.' ) U F b g q.8.X 6.1.,.] ) J F b b S Y ] -.) Y ) [ ,.;.) J ",
"1.;.] ) F n 4 ; r.' >.3.3.,.[ ) J A n D Q ' ' _ J S H ) ;.,.[ ' ",
"' ) Y F b d # # ) ` { f.y.[ &.g.R X.a t w.4.' K 5 7 9 r.{ [ ,.2.",
"' ' T F 8 +   0 u u.r < $ q * 7.e w O.%.  i.+.< 8 g 0 . #.[ ,.2.",
"2.>.-.T F $ $ ) ,.5.@.O <  ./ : , p.a.y y.z   r i 0 9 h } ,.[ ' ",
",.:.^ Q o.  d.' 2.1.p o | n s   g.>.>.$.0.& > ( F N j x ;.,._ S ",
"C B f N w = U ' 2.6.X a S S ..= - % 9.p...e.> + % q s.>.] Q N b ",
"3 3 3 k   +.~ [ ,.>.*.R J H S b c L <.1.E n S b 2 C >.<.Q n c 2 ",
"n M S 0 @ L :.,.[ [ >.:.Q S c d n Q 1.1._ A b 6 d N ] ] G c 3 1 ",
"' ` Y t.l P :.=._ ) ;.,.' F c m Q [ <.<.[ _ D b 2 m I T G N V B ",
"1.,.] ] ;.:.! R J J _ ' ' T F W :.,.[ [ ,.;.W A 3 c F Y Q ^ >.<.",
"2.,.] -.1.>.R n A A S F T ' ' ] ,.,._ _ ;.,.[ W v m I ' ' ] >.<.",
"' _ Y ) [ ] I A n c 6 b F ' ,.,.[ _ J J ) [ ,.;.Q W =.;.' I Z C ",
"S S H ) ] [ ) S b 3 3 c S ' 2.1.' H A A A W >.,.[ [ ,.;.) S c 2 ",
"b n S _ ,.,._ S 2 3 n A S ' 2.2.~ S d 3 3 b I ] <.,.[ ) U J A A ",
"n D Q [ ,.;.Q n 6 c n S J ' =.1.[ W N f 3 b A ) 1.,.) J A A H A ",
"S Q ;.,.[ W D n n n c m Q ' ' -.,.,.' W D S S ) ] ] ) S c 2 c b ",
"A W ;.,.[ Q D n S F Z Z Q T J Q >.,.] ' ' _ ) ) ) ` ' I v c n N ",
"3 v W [ ,.;.W H H ) :.:.' J n M T _ T ' >.1.] ) ) ' ;.;.Q D Y ~ ",
"f v A Q ;.,.[ _ ) ' ;.;.Q A n A S U ) [ ,.,.] Y J ) ;.;.' Y ) ' ",
"Q R M D Q [ ,.,.[ ' ' Q D n A H H _ ;.,.[ _ G D S U ) ' ` ) T U ",
"] Q N b S ' 2.3.;.' U S b b S J H ' 2.2.' S b b S J J U ` ` ) H "
};
