/* XPM */
static char *player[] = {
/* columns rows colors chars-per-pixel */
"32 32 167 2 ",
"   c #3C2B23",
".  c #3F2E28",
"X  c #3A322E",
"o  c #3D3233",
"O  c #3A363D",
"+  c #402F26",
"@  c #44322A",
"#  c #58443D",
"$  c #373F4F",
"%  c #3E454A",
"&  c #3B4A57",
"*  c #324D6C",
"=  c #345371",
"-  c #31597D",
";  c #346278",
":  c #5E4942",
">  c #654D48",
",  c #67514A",
"<  c #79605A",
"1  c #816661",
"2  c #836864",
"3  c #8C716C",
"4  c #9B7B76",
"5  c #305C81",
"6  c #2E628C",
"7  c #316786",
"8  c #347A8A",
"9  c #317D96",
"0  c #0A74B2",
"q  c #077CBC",
"w  c #087BBB",
"e  c #2277A9",
"r  c #077FC0",
"t  c #2E829A",
"y  c #0982BF",
"u  c #1989BB",
"i  c #1D91BC",
"p  c #248FB3",
"a  c #2F9FB5",
"s  c #2CA2BB",
"d  c #0683C3",
"f  c #0B8BC4",
"g  c #098BC7",
"h  c #0486C9",
"j  c #048ACB",
"k  c #148AC1",
"l  c #0C94CC",
"z  c #1697C2",
"x  c #1499C7",
"c  c #189CC4",
"v  c #149DCB",
"b  c #189FCF",
"n  c #028FD0",
"m  c #0293D4",
"M  c #0994D0",
"N  c #0699D5",
"B  c #0D9CD3",
"V  c #0197D8",
"C  c #029BDB",
"Z  c #1C93D4",
"A  c #258DCD",
"S  c #2496D1",
"D  c #1AA8CD",
"F  c #0DA1D6",
"G  c #06A3DE",
"H  c #0BA5DC",
"J  c #0DAADE",
"K  c #12A3D4",
"L  c #19ACD3",
"P  c #11A6D9",
"I  c #11ABDD",
"U  c #1CB2D4",
"Y  c #12B0DF",
"T  c #18B6DC",
"R  c #18B8DF",
"E  c #2CABC2",
"W  c #3BA1CF",
"Q  c #2EB7C9",
"!  c #2BAADD",
"~  c #25B7D3",
"^  c #24BFD9",
"/  c #0DACE1",
"(  c #11AEE1",
")  c #1EADE0",
"_  c #0FB3E3",
"`  c #13B3E3",
"'  c #16BCE6",
"]  c #19BDE5",
"[  c #2BBEE6",
"{  c #35B5E4",
"}  c #5290C8",
"|  c #4898D2",
" . c #44ADDE",
".. c #49ABDA",
"X. c #5FB4DF",
"o. c #7BA7CE",
"O. c #68A8D9",
"+. c #43BFE6",
"@. c #1BC2E7",
"#. c #18C0E8",
"$. c #1FCAEA",
"%. c #21C6E2",
"&. c #22CBE4",
"*. c #21CEEB",
"=. c #26D1E5",
"-. c #25D6EE",
";. c #27DEF1",
":. c #42CFEC",
">. c #5BC7EB",
",. c #82879F",
"<. c #A98781",
"1. c #AD8A85",
"2. c #B28D86",
"3. c #B58F8A",
"4. c #B9948D",
"5. c #A08B91",
"6. c #BD9993",
"7. c #BE9995",
"8. c #929BB4",
"9. c #9AA4BD",
"0. c #A4A4BE",
"q. c #B9AAB8",
"w. c #C39C95",
"e. c #C69F98",
"r. c #D89E9B",
"t. c #CCA39C",
"y. c #D2A59E",
"u. c #CBA7A7",
"i. c #D3A5A1",
"p. c #D9A7A2",
"a. c #D6ABA4",
"s. c #D8ACA4",
"d. c #D4ACAA",
"f. c #D1B5BB",
"g. c #DABAB8",
"h. c #9DA5C2",
"j. c #94AAC5",
"k. c #86B9D9",
"l. c #97B2DB",
"z. c #A1A9C6",
"x. c #ACAAC0",
"c. c #A5AECD",
"v. c #A7B0CE",
"b. c #A5B2D3",
"n. c #AAB3D3",
"m. c #ABB7D9",
"M. c #AFBADB",
"N. c #B1BCDD",
"B. c #92B9E5",
"V. c #A9BFE6",
"C. c #B3BEE1",
"Z. c #CFB9C5",
"A. c #CEBCCB",
"S. c #C4BED5",
"D. c #89C5EB",
"F. c #95C6EB",
"G. c #93CCEC",
"H. c #B4C1E3",
"J. c #B8C3E6",
"K. c #BAC6EA",
"L. c #B6C8ED",
"P. c #BFCAED",
"I. c #B1CBF0",
"U. c #BDCCF0",
"Y. c #C5C6E2",
"T. c #C0CCEF",
"R. c #C0CCF1",
/* pixels */
"' J l h m ` -.-.Y m h h m V C ` -.-.` m h h V j q w j G _ _ G C ",
"` J F l m I &.a ; = - 7 6 k ( ] *.$.P j d j m m d d j F ' #.J C ",
"G J J F M i & + + @     + o s *.] P g w y h m C m j y v &.*./ C ",
"C C H F u O 1 4.t.t.t.w.4 @   Q I j q d h h n V V N x L %.@./ C ",
"C V g u X <.s.s.s.s.s.s.s.t.#   p d h m m m j j V ( %.%.U K N C ",
"m j q * > y.s.s.s.s.s.s.s.s.w.  t v F G G N n l P ] *.%.K j n V ",
"h j u o <.s.s.s.s.s.s.s.s.s.s.2 X ^ ] ` ` J C I $.*.] ( N n j j ",
"h j - @ w.s.s.s.s.s.s.s.s.s.s.1 + 8 R I _ ` ` @.-.-.@.( C V j j ",
"V V $ @ t.a.a.s.s.a.a.a.a.s.s.#   ; B M G ` $.-.$.$.-.$./ V V n ",
"` ( 7 . y.y.3.1.t.a.t.t.t.a.s.#   5 h h m / $.-.#.' *.*.] ( G V ",
"-.*.; > a.3.4 3 2.s.2.3 1 3 w.< . - h h m / ' ' / / ( ] *.$./ V ",
"-.*.9 <.a.s.d.w.s.a.4.w.6.6.y.1 @ - j M P ` _ / C m V / $.*.] ` ",
"Y ` b 7.t.s.s.s.s.s.t.y.4.a.s.2.@ e j I $.*.` N d h n G ( ' *.-.",
"` ` J 0.i.s.s.t.s.s.u.t.a.a.s.6.% b F ` $.*.` N h r h N ( ' *.-.",
"-.*.' O.d.s.4.t.t.i.t.<.t.a.a.6.E *.' _ ` ` ` / N h r v %.*.] ` ",
"=.%.T H q.s.1.i.s.7.6.s.a.a.a., ~ &.$.' F C / / N l x L &.%.( V ",
"z z z l j.a.s.y.p.g.d.r.e.i.u.: i L &.&.K j C N h x ^ &.] I l h ",
"w w w f W d.s.s.p.r.r.p.d.u.A.L.} D =.-.L j n j q c %.*.I n d w ",
"j m j j g 9.s.s.s.s.s.s.s.s.Y.N.b.X.-.-.Y m h d d v ` ] B d w 0 ",
"` / H F v k.i.t.s.s.s.y.s.f.R.C.h.U.U.G.[ H M d q g H I B l x z ",
"-.-.' +.G.N.f.t.w.w.w.s.p.Y.R.C.v.U.R.R.U.I.F.| w d N / J R %.=.",
"-.:.F.P.N.C.A.s.s.s.a.s.A.T.R.v.v.U.R.R.R.R.R.R.H.l. .` ` ' &.=.",
"B.H.U.R.z.J.S.p.a.s.s.u.T.T.R.m.m.U.R.R.R.R.R.R.U.U.P.D.` F D z ",
"m.R.R.R.h.z.h.Z.s.a.7.M.b.z.T.K.n.U.R.R.R.R.R.R.U.U.M.c.o.m d w ",
"U.U.R.R.,.M.R.x.f.s.5.R.v.T.z.9.h.R.R.R.R.R.R.R.U.K.R.R.M.O.n n ",
"R.U.R.R.n.R.R.b.n.x.C.C.T.R.R.T.T.R.R.R.R.R.R.R.R.b.R.R.P.C.B.Z ",
"R.R.R.R.R.R.R.R.v.R.R.R.T.R.T.R.T.R.R.R.R.R.R.R.H.N.R.R.R.T.m.l.",
"R.R.R.R.R.R.R.R.b.8.R.R.R.R.R.R.R.R.R.R.R.R.R.R.c.R.R.R.R.R.R.N.",
"U.R.R.U.R.R.R.P.m.R.R.R.R.R.R.R.R.R.R.R.R.R.R.R.m.R.R.U.R.R.R.R.",
"R.R.R.U.R.R.R.J.V.U.R.R.R.R.R.U.R.R.R.R.R.R.R.R.C.U.U.U.U.L.L.L.",
"....| | ..:.:.>.X.{ { ! S A Z Z Z ) %.*.] ( B M C G / ( _ / / G ",
"' I l h m ` ;.;.$./ G V h j V C C ) -.-.` V h h m V V / _ / / V "
};
